<svg id="visual" viewBox="0 0 1920 1080" width="1920" height="1080" xmlns="http://www.w3.org/2000/svg" xmlns:xlink="http://www.w3.org/1999/xlink" version="1.1"><rect x="0" y="0" width="1920" height="1080" fill="#002233"></rect><path d="M0 901L45.7 897.3C91.3 893.7 182.7 886.3 274.2 880.3C365.7 874.3 457.3 869.7 548.8 878.3C640.3 887 731.7 909 823 914.5C914.3 920 1005.7 909 1097 901.3C1188.3 893.7 1279.7 889.3 1371.2 875.5C1462.7 861.7 1554.3 838.3 1645.8 838.2C1737.3 838 1828.7 861 1874.3 872.5L1920 884L1920 1081L1874.3 1081C1828.7 1081 1737.3 1081 1645.8 1081C1554.3 1081 1462.7 1081 1371.2 1081C1279.7 1081 1188.3 1081 1097 1081C1005.7 1081 914.3 1081 823 1081C731.7 1081 640.3 1081 548.8 1081C457.3 1081 365.7 1081 274.2 1081C182.7 1081 91.3 1081 45.7 1081L0 1081Z" fill="#0066FF" stroke-linecap="round" stroke-linejoin="miter"></path></svg>