<svg id="visual" viewBox="0 0 1920 1000" width="1920" height="1000" xmlns="http://www.w3.org/2000/svg" xmlns:xlink="http://www.w3.org/1999/xlink" version="1.1"><rect x="0" y="0" width="1920" height="1000" fill="#002233"></rect><path d="M1266 1000L1251.2 981.5C1236.3 963 1206.7 926 1254 889C1301.3 852 1425.7 815 1468 778C1510.3 741 1470.7 704 1413.2 667C1355.7 630 1280.3 593 1265 555.8C1249.7 518.7 1294.3 481.3 1333.2 444.2C1372 407 1405 370 1375.7 333C1346.3 296 1254.7 259 1272 222C1289.3 185 1415.7 148 1455.2 111C1494.7 74 1447.3 37 1423.7 18.5L1400 0L1920 0L1920 18.5C1920 37 1920 74 1920 111C1920 148 1920 185 1920 222C1920 259 1920 296 1920 333C1920 370 1920 407 1920 444.2C1920 481.3 1920 518.7 1920 555.8C1920 593 1920 630 1920 667C1920 704 1920 741 1920 778C1920 815 1920 852 1920 889C1920 926 1920 963 1920 981.5L1920 1000Z" fill="#0066FF" stroke-linecap="round" stroke-linejoin="miter"></path></svg>